<svg xmlns="http://www.w3.org/2000/svg" viewBox="0 0 24890 25000"><linearGradient id="a" x1="12445" x2="12445" y1="24287.6" y2="430" gradientUnits="userSpaceOnUse"><stop offset="0" stop-color="#20b038"/><stop offset="1" stop-color="#60d66a"/></linearGradient><path fill="url(#a)" d="m570 24288 1678-6126a11807 11807 0 0 1-1579-5910C671 5733 5976 430 12494 430c3164 1 6133 1233 8365 3467a11750 11750 0 0 1 3461 8363c-3 6518-5308 11822-11825 11822h-5c-1979-1-3924-497-5651-1439L570 24288"/><g fill="#fff"><path fill-rule="evenodd" d="M9435 7128c-229-510-471-520-689-529-178-8-383-7-587-7s-536 77-816 383c-281 306-1071 1047-1071 2553s1097 2961 1250 3166c153 204 2117 3393 5229 4620 2586 1020 3112 817 3673 766s1811-740 2066-1455 255-1327 179-1455c-77-128-281-204-587-357s-1811-894-2091-996c-281-102-485-153-689 153s-790 995-969 1199c-179 205-357 230-663 77-306-154-1292-476-2461-1519-910-811-1524-1813-1703-2120-179-306-19-472 134-625 137-137 306-357 459-536s204-306 306-510 51-383-26-536-672-1666-944-2272"/><path d="M21162 3594A12169 12169 0 0 0 12497 3C5744 2 249 5496 246 12248c0 2158 564 4265 1636 6122L144 24715l6494-1703a12242 12242 0 0 0 5854 1491h5c6751 0 12247-5494 12250-12246 0-3272-1273-6349-3585-8663zm-8666 18841h-4c-1827-1-3619-492-5182-1419l-372-221-3854 1010 1030-3755-242-385a10163 10163 0 0 1-1557-5417c2-5612 4569-10177 10185-10177 2720 1 5276 1061 7198 2985s2980 4481 2979 7201c-1 5612-4569 10178-10181 10178"/></g></svg>